<svg width="122" height="122" viewBox="0 0 122 122" fill="none" xmlns="http://www.w3.org/2000/svg">
<path d="M8.23941 57.0663C8.96331 43.7637 13.4002 32.0634 21.2899 23.4987C29.8912 14.1531 42.9783 8.13416 60.9985 8.13416C79.0146 8.13416 92.1016 14.1531 100.707 23.4987C109.365 32.8971 113.863 46.0696 113.863 60.9949C113.863 75.9242 109.365 89.0967 100.707 98.4993C92.1016 107.845 79.0186 113.864 60.9985 113.864C42.9824 113.864 29.8953 107.845 21.2899 98.4993C20.9613 98.1426 20.6386 97.7806 20.322 97.4134C18.3417 99.4269 15.808 100.807 13.0423 101.379C13.7662 102.281 14.5186 103.156 15.3035 104.01C25.6739 115.271 41.0547 121.997 60.9985 121.997C80.9422 121.997 96.323 115.271 106.689 104.01C117.007 92.8057 121.997 77.5144 121.997 60.999C121.997 44.4835 117.007 29.1922 106.689 17.9881C96.3189 6.72703 80.9422 0.000488281 61.0025 0.000488281C41.0547 0.000488281 25.6739 6.72703 15.3035 17.9881C4.98594 29.1922 0 44.4835 0 60.999V61.2104C2.21021 58.9519 5.10879 57.4926 8.23941 57.0623V57.0663Z" fill="url(#paint0_linear_2052_11557)"/>
<path d="M19.9722 90.1461C19.3759 92.2883 18.0954 94.1767 16.3258 95.5234C14.5563 96.87 12.3948 97.6009 10.1712 97.6046C7.47468 97.6046 4.88864 96.5335 2.98194 94.6268C1.07524 92.7201 0.00406709 90.134 0.00406709 87.4376V71.1702C-0.0343852 69.8109 0.200149 68.4576 0.693798 67.1905C1.18745 65.9233 1.93019 64.768 2.87809 63.7929C3.82599 62.8178 4.95981 62.0427 6.21249 61.5135C7.46516 60.9842 8.81126 60.7115 10.1712 60.7115C11.5311 60.7115 12.8772 60.9842 14.1298 61.5135C15.3825 62.0427 16.5163 62.8178 17.4642 63.7929C18.4121 64.768 19.1549 65.9233 19.6485 67.1905C20.1422 68.4576 20.3767 69.8109 20.3382 71.1702V87.4376C20.3382 88.3729 20.2122 89.2839 19.9722 90.1461ZM40.7009 22.0266V22.0306L40.6887 22.0957L40.6196 22.4007C40.1576 24.1507 39.3653 25.7961 38.2852 27.2484C36.3453 29.8308 32.8641 32.5353 26.4385 32.5353C25.8992 32.5353 25.382 32.7495 25.0007 33.1308C24.6193 33.5122 24.4051 34.0294 24.4051 34.5687C24.4051 35.108 24.6193 35.6252 25.0007 36.0065C25.382 36.3879 25.8992 36.6021 26.4385 36.6021C34.2468 36.6021 38.8952 33.2063 41.5387 29.6885C42.9439 27.8018 43.9713 25.6614 44.5644 23.3849C44.6029 23.2284 44.6381 23.0711 44.6701 22.9131L44.6986 22.7749L44.7067 22.7301V22.7139L44.7108 22.7057C44.8009 22.174 44.676 21.6282 44.3637 21.1886C44.0514 20.7489 43.5772 20.4513 43.0454 20.3612C42.5137 20.2711 41.9679 20.396 41.5283 20.7083C41.0886 21.0206 40.791 21.4948 40.7009 22.0266V22.0266ZM81.3245 22.0957L81.3123 22.0306C81.2121 21.5094 80.9121 21.0479 80.4762 20.7449C80.0404 20.4419 79.5034 20.3213 78.9798 20.4089C78.4563 20.4965 77.9878 20.7854 77.6743 21.2138C77.3609 21.6422 77.2274 22.1762 77.3024 22.7017C77.1316 22.0957 77.3024 22.7057 77.3024 22.7057V22.7139L77.3065 22.7301L77.3146 22.7708L77.3227 22.8277L77.3431 22.9131C77.3675 23.0311 77.4 23.1897 77.4488 23.3849C78.0419 25.6614 79.0693 27.8018 80.4745 29.6885C83.118 33.2063 87.7664 36.6021 95.5747 36.6021C96.114 36.6021 96.6312 36.3879 97.0126 36.0065C97.3939 35.6252 97.6081 35.108 97.6081 34.5687C97.6081 34.0294 97.3939 33.5122 97.0126 33.1308C96.6312 32.7495 96.114 32.5353 95.5747 32.5353C89.1491 32.5353 85.6638 29.8308 83.728 27.2484C82.6479 25.7961 81.8556 24.1507 81.3937 22.4007C81.3684 22.2996 81.3453 22.1979 81.3245 22.0957V22.0957ZM52.8729 56.9363C52.8729 58.5385 52.5574 60.125 51.9442 61.6052C51.3311 63.0855 50.4324 64.4304 49.2995 65.5634C48.1666 66.6963 46.8216 67.595 45.3414 68.2081C43.8611 68.8212 42.2746 69.1368 40.6724 69.1368C39.0702 69.1368 37.4837 68.8212 36.0035 68.2081C34.5233 67.595 33.1783 66.6963 32.0454 65.5634C30.9124 64.4304 30.0138 63.0855 29.4006 61.6052C28.7875 60.125 28.4719 58.5385 28.4719 56.9363C28.4719 53.7005 29.7573 50.5973 32.0454 48.3092C34.3334 46.0212 37.4367 44.7358 40.6724 44.7358C43.9082 44.7358 47.0115 46.0212 49.2995 48.3092C51.5875 50.5973 52.8729 53.7005 52.8729 56.9363V56.9363ZM81.3408 69.1368C84.5766 69.1368 87.6798 67.8514 89.9678 65.5634C92.2559 63.2753 93.5413 60.1721 93.5413 56.9363C93.5413 53.7005 92.2559 50.5973 89.9678 48.3092C87.6798 46.0212 84.5766 44.7358 81.3408 44.7358C78.105 44.7358 75.0018 46.0212 72.7137 48.3092C70.4257 50.5973 69.1403 53.7005 69.1403 56.9363C69.1403 60.1721 70.4257 63.2753 72.7137 65.5634C75.0018 67.8514 78.105 69.1368 81.3408 69.1368ZM45.9308 92.3462C45.1684 91.5836 44.7401 90.5494 44.7401 89.471C44.7401 88.3926 45.1684 87.3584 45.9308 86.5957L45.9349 86.5876L45.943 86.5835L45.9552 86.5713L45.9878 86.5388L46.0691 86.4575L46.3172 86.2338C46.5801 86.0068 46.8514 85.7898 47.1306 85.5831C47.8097 85.0707 48.7776 84.4281 50.0384 83.7977C52.5679 82.537 56.2362 81.3373 61.0066 81.3373C65.777 81.3373 69.4453 82.533 71.9749 83.7977C73.2356 84.4281 74.2035 85.0707 74.8867 85.5831C75.2533 85.857 75.6062 86.1488 75.9441 86.4575L76.0254 86.5388L76.058 86.5713L76.0702 86.5835L76.0783 86.5876L76.0824 86.5957C76.8305 87.3571 77.2492 88.3821 77.2483 89.4495C77.2474 90.5169 76.8268 91.5412 76.0774 92.3013C75.328 93.0614 74.3098 93.4963 73.2425 93.5124C72.1752 93.5284 71.1444 93.1242 70.3725 92.3869L70.34 92.3584C69.7215 91.8601 69.0505 91.4306 68.3391 91.0774C66.8018 90.3006 64.3699 89.471 61.0066 89.471C57.6433 89.471 55.2114 90.3087 53.6741 91.0733C52.9625 91.4278 52.2916 91.8587 51.6732 92.3584L51.6407 92.3869C50.8744 93.1316 49.8459 93.5447 48.7774 93.5371C47.709 93.5295 46.6864 93.1017 45.9308 92.3462V92.3462Z" fill="url(#paint1_linear_2052_11557)"/>
<defs>
<linearGradient id="paint0_linear_2052_11557" x1="60.9985" y1="0.000488281" x2="60.9985" y2="121.997" gradientUnits="userSpaceOnUse">
<stop stop-color="#27067F"/>
<stop offset="1" stop-color="#8300CA"/>
</linearGradient>
<linearGradient id="paint1_linear_2052_11557" x1="48.8041" y1="20.3326" x2="48.8041" y2="97.6046" gradientUnits="userSpaceOnUse">
<stop stop-color="#27067F"/>
<stop offset="1" stop-color="#8300CA"/>
</linearGradient>
</defs>
</svg>
