<svg width="50" height="49" viewBox="0 0 50 49" fill="none" xmlns="http://www.w3.org/2000/svg">
<path d="M27.211 1.99743C26.346 0.362511 23.6562 0.362511 22.7912 1.99743L0.292323 44.4953C0.0897923 44.8762 -0.0106138 45.3031 0.000887931 45.7343C0.0123897 46.1656 0.135407 46.5865 0.357954 46.9561C0.5805 47.3256 0.894986 47.6312 1.27077 47.8431C1.64655 48.055 2.07081 48.1659 2.50221 48.1651H47.5C47.9311 48.166 48.355 48.0552 48.7306 47.8434C49.1061 47.6317 49.4203 47.3262 49.6427 46.9568C49.865 46.5875 49.9878 46.1668 49.9991 45.7358C50.0105 45.3049 49.9099 44.8783 49.7073 44.4978L27.211 1.99743ZM27.501 40.6655H22.5012V35.6657H27.501V40.6655ZM22.5012 30.666V18.1666H27.501L27.5035 30.666H22.5012Z" fill="white"/>
</svg>
