<svg width="17" height="17" viewBox="0 0 17 17" fill="none" xmlns="http://www.w3.org/2000/svg">
<path d="M4.20688 5.31422C4.1118 5.21947 4.03636 5.10689 3.98489 4.98293C3.93342 4.85896 3.90692 4.72605 3.90692 4.59183C3.90692 4.4576 3.93342 4.3247 3.98489 4.20073C4.03636 4.07677 4.1118 3.96418 4.20688 3.86943L7.77635 0.29996C7.8711 0.204883 7.98369 0.129445 8.10765 0.0779706C8.23161 0.0264967 8.36452 0 8.49875 0C8.63297 0 8.76588 0.0264967 8.88984 0.0779706C9.01381 0.129445 9.12639 0.204883 9.22114 0.29996L12.7906 3.86943C12.8857 3.96418 12.9611 4.07677 13.0126 4.20073C13.0641 4.3247 13.0906 4.4576 13.0906 4.59183C13.0906 4.72605 13.0641 4.85896 13.0126 4.98293C12.9611 5.10689 12.8857 5.21947 12.7906 5.31422C12.5982 5.50418 12.3386 5.61069 12.0682 5.61069C11.7978 5.61069 11.5383 5.50418 11.3458 5.31422L9.5186 3.48699V10.541C9.5186 10.8114 9.41115 11.0708 9.21989 11.2621C9.02863 11.4534 8.76923 11.5608 8.49875 11.5608C8.22827 11.5608 7.96886 11.4534 7.7776 11.2621C7.58635 11.0708 7.4789 10.8114 7.4789 10.541V3.48699L5.65167 5.31422C5.55692 5.4093 5.44434 5.48474 5.32037 5.53621C5.19641 5.58769 5.0635 5.61418 4.92927 5.61418C4.79505 5.61418 4.66214 5.58769 4.53818 5.53621C4.41421 5.48474 4.30163 5.4093 4.20688 5.31422ZM15.9776 9.5211C15.7072 9.5211 15.4478 9.62855 15.2565 9.81981C15.0652 10.0111 14.9578 10.2705 14.9578 10.541V14.9603H2.0397V10.541C2.0397 10.2705 1.93225 10.0111 1.74099 9.81981C1.54973 9.62855 1.29033 9.5211 1.01985 9.5211C0.749369 9.5211 0.489966 9.62855 0.298707 9.81981C0.107448 10.0111 0 10.2705 0 10.541V15.3002C0.00223385 15.7504 0.182031 16.1814 0.500313 16.4997C0.818595 16.818 1.24964 16.9978 1.69975 17H15.2977C15.7479 16.9978 16.1789 16.818 16.4972 16.4997C16.8155 16.1814 16.9953 15.7504 16.9975 15.3002V10.541C16.9975 10.2705 16.89 10.0111 16.6988 9.81981C16.5075 9.62855 16.2481 9.5211 15.9776 9.5211Z" fill="white"/>
</svg>
