<svg width="12" height="12" viewBox="0 0 12 12" fill="none" xmlns="http://www.w3.org/2000/svg">
<path d="M5.84978 0C5.08373 0 4.32519 0.150884 3.61746 0.444036C2.90972 0.737188 2.26666 1.16687 1.72499 1.70854C0.631024 2.80251 0.0164421 4.28624 0.0164421 5.83333C0.0113425 7.18033 0.477738 8.48665 1.33478 9.52583L0.168109 10.6925C0.0871668 10.7745 0.0323356 10.8787 0.010534 10.9919C-0.0112675 11.105 0.000937354 11.2221 0.0456087 11.3283C0.0940591 11.4333 0.172603 11.5215 0.271269 11.5817C0.369936 11.642 0.484276 11.6715 0.599775 11.6667H5.84978C7.39687 11.6667 8.8806 11.0521 9.97457 9.95812C11.0685 8.86416 11.6831 7.38043 11.6831 5.83333C11.6831 4.28624 11.0685 2.80251 9.97457 1.70854C8.8806 0.614582 7.39687 0 5.84978 0Z" fill="white"/>
</svg>
