<svg width="145" height="28" viewBox="0 0 145 28" fill="none" xmlns="http://www.w3.org/2000/svg">
<path d="M53.28 10.02C50.42 10.02 48.1 10.96 46.42 12.28V6H43V22H46.42V15.4C47.48 14.16 49.96 12.98 52.26 12.98C55.08 12.98 55.92 14.28 55.92 16.78V22H59.36L59.4 15.48C59.36 11.14 56.42 10.02 53.28 10.02Z" fill="white"/>
<path d="M78.553 19.42C76.273 19.42 74.473 18.8 74.093 16.92H86.813C86.813 11.56 83.233 10.02 78.753 10.02C73.973 10.02 70.593 11.78 70.593 16.12C70.593 20.44 74.073 22.2 78.553 22.2C82.913 22.2 85.833 20.78 86.613 17.78H83.213C82.353 18.98 80.913 19.42 78.553 19.42ZM78.733 12.62C80.893 12.62 82.573 13.08 83.153 14.74H74.213C74.753 13.08 76.393 12.62 78.733 12.62Z" fill="white"/>
<path d="M98.1172 6V22H101.537V6H98.1172Z" fill="white"/>
<path d="M113.137 6V22H116.557V6H113.137Z" fill="white"/>
<path d="M136.019 22.2C140.879 22.2 144.179 20.44 144.179 16.12C144.179 11.78 140.879 10.02 136.019 10.02C131.139 10.02 127.859 11.78 127.859 16.12C127.859 20.44 131.139 22.2 136.019 22.2ZM136.019 19.34C132.839 19.34 131.279 18.56 131.279 16.12C131.279 13.66 132.839 12.88 136.019 12.88C139.179 12.88 140.739 13.66 140.739 16.12C140.739 18.56 139.179 19.34 136.019 19.34Z" fill="white"/>
<path d="M28 14C28 21.732 21.732 28 14 28C6.26801 28 0 21.732 0 14C0 6.26801 6.26801 0 14 0C21.732 0 28 6.26801 28 14Z" fill="white"/>
</svg>
